<svg width="1080" height="1920" viewBox="0 0 1080 1920" fill="none" xmlns="http://www.w3.org/2000/svg">
<g clip-path="url(#clip0_2_2)">
<path opacity="0.12" d="M73.8462 0L0 73.8462" stroke="#B22222" stroke-width="4"/>
<path opacity="0.17" d="M73.8462 0L147.692 73.8462" stroke="#B22222" stroke-width="4"/>
<path opacity="0.96" d="M147.692 0L221.538 73.8462" stroke="#B22222" stroke-width="4"/>
<path opacity="0.76" d="M221.538 0L295.385 73.8462" stroke="#B22222" stroke-width="4"/>
<path opacity="0.71" d="M369.231 0L295.385 73.8462" stroke="#B22222" stroke-width="4"/>
<path opacity="0.33" d="M443.077 0L369.231 73.8462" stroke="#B22222" stroke-width="4"/>
<path opacity="0.53" d="M516.923 0L443.077 73.8462" stroke="#B22222" stroke-width="4"/>
<path opacity="0.43" d="M590.769 0L516.923 73.8462" stroke="#B22222" stroke-width="4"/>
<path opacity="0.46" d="M590.769 0L664.615 73.8462" stroke="#B22222" stroke-width="4"/>
<path opacity="0.74" d="M664.615 0L738.462 73.8462" stroke="#B22222" stroke-width="4"/>
<path opacity="0.91" d="M738.462 0L812.308 73.8462" stroke="#B22222" stroke-width="4"/>
<path opacity="0.73" d="M812.308 0L886.154 73.8462" stroke="#B22222" stroke-width="4"/>
<path opacity="0.59" d="M886.154 0L960 73.8462" stroke="#B22222" stroke-width="4"/>
<path opacity="0.95" d="M1033.85 0L960 73.8462" stroke="#B22222" stroke-width="4"/>
<path opacity="0.36" d="M1033.85 0L1107.69 73.8462" stroke="#B22222" stroke-width="4"/>
<path opacity="0.52" d="M0 73.8462L73.8462 147.692" stroke="#B22222" stroke-width="4"/>
<path opacity="0.43" d="M147.692 73.8462L73.8462 147.692" stroke="#B22222" stroke-width="4"/>
<path opacity="0.73" d="M147.692 73.8462L221.538 147.692" stroke="#B22222" stroke-width="4"/>
<path opacity="0.69" d="M295.385 73.8462L221.538 147.692" stroke="#B22222" stroke-width="4"/>
<path opacity="0.46" d="M295.385 73.8462L369.231 147.692" stroke="#B22222" stroke-width="4"/>
<path opacity="0.42" d="M369.231 73.8462L443.077 147.692" stroke="#B22222" stroke-width="4"/>
<path opacity="0.36" d="M443.077 73.8462L516.923 147.692" stroke="#B22222" stroke-width="4"/>
<path opacity="0.8" d="M590.769 73.8462L516.923 147.692" stroke="#B22222" stroke-width="4"/>
<path opacity="0.7" d="M590.769 73.8462L664.615 147.692" stroke="#B22222" stroke-width="4"/>
<path opacity="0.21" d="M664.615 73.8462L738.462 147.692" stroke="#B22222" stroke-width="4"/>
<path opacity="0.82" d="M738.462 73.8462L812.308 147.692" stroke="#B22222" stroke-width="4"/>
<path opacity="0.46" d="M812.308 73.8462L886.154 147.692" stroke="#B22222" stroke-width="4"/>
<path opacity="0.75" d="M886.154 73.8462L960 147.692" stroke="#B22222" stroke-width="4"/>
<path opacity="0.89" d="M1033.85 73.8462L960 147.692" stroke="#B22222" stroke-width="4"/>
<path opacity="0.27" d="M1033.85 73.8462L1107.69 147.692" stroke="#B22222" stroke-width="4"/>
<path opacity="0.95" d="M73.8462 147.692L0 221.538" stroke="#B22222" stroke-width="4"/>
<path opacity="0.54" d="M73.8462 147.692L147.692 221.538" stroke="#B22222" stroke-width="4"/>
<path opacity="0.82" d="M147.692 147.692L221.538 221.538" stroke="#B22222" stroke-width="4"/>
<path opacity="0.34" d="M221.538 147.692L295.385 221.538" stroke="#B22222" stroke-width="4"/>
<path opacity="0.57" d="M369.231 147.692L295.385 221.538" stroke="#B22222" stroke-width="4"/>
<path opacity="0.91" d="M369.231 147.692L443.077 221.538" stroke="#B22222" stroke-width="4"/>
<path opacity="0.26" d="M443.077 147.692L516.923 221.538" stroke="#B22222" stroke-width="4"/>
<path opacity="0.83" d="M590.769 147.692L516.923 221.538" stroke="#B22222" stroke-width="4"/>
<path opacity="0.88" d="M590.769 147.692L664.615 221.538" stroke="#B22222" stroke-width="4"/>
<path opacity="0.57" d="M664.615 147.692L738.462 221.538" stroke="#B22222" stroke-width="4"/>
<path opacity="0.78" d="M738.462 147.692L812.308 221.538" stroke="#B22222" stroke-width="4"/>
<path opacity="0.73" d="M812.308 147.692L886.154 221.538" stroke="#B22222" stroke-width="4"/>
<path opacity="0.96" d="M886.154 147.692L960 221.538" stroke="#B22222" stroke-width="4"/>
<path opacity="0.73" d="M1033.85 147.692L960 221.538" stroke="#B22222" stroke-width="4"/>
<path opacity="0.97" d="M1107.69 147.692L1033.85 221.538" stroke="#B22222" stroke-width="4"/>
<path opacity="0.96" d="M0 221.538L73.8462 295.385" stroke="#B22222" stroke-width="4"/>
<path opacity="0.9" d="M73.8462 221.538L147.692 295.385" stroke="#B22222" stroke-width="4"/>
<path opacity="0.76" d="M147.692 221.538L221.538 295.385" stroke="#B22222" stroke-width="4"/>
<path opacity="0.79" d="M295.385 221.538L221.538 295.385" stroke="#B22222" stroke-width="4"/>
<path opacity="0.46" d="M369.231 221.538L295.385 295.385" stroke="#B22222" stroke-width="4"/>
<path opacity="0.36" d="M369.231 221.538L443.077 295.385" stroke="#B22222" stroke-width="4"/>
<path opacity="0.79" d="M443.077 221.538L516.923 295.385" stroke="#B22222" stroke-width="4"/>
<path opacity="0.4" d="M590.769 221.538L516.923 295.385" stroke="#B22222" stroke-width="4"/>
<path opacity="0.55" d="M590.769 221.538L664.615 295.385" stroke="#B22222" stroke-width="4"/>
<path opacity="0.92" d="M738.462 221.538L664.615 295.385" stroke="#B22222" stroke-width="4"/>
<path opacity="0.35" d="M738.462 221.538L812.308 295.385" stroke="#B22222" stroke-width="4"/>
<path opacity="0.33" d="M886.154 221.538L812.308 295.385" stroke="#B22222" stroke-width="4"/>
<path opacity="0.61" d="M886.154 221.538L960 295.385" stroke="#B22222" stroke-width="4"/>
<path opacity="0.65" d="M960 221.538L1033.85 295.385" stroke="#B22222" stroke-width="4"/>
<path opacity="0.93" d="M1033.85 221.538L1107.69 295.385" stroke="#B22222" stroke-width="4"/>
<path opacity="0.31" d="M0 295.385L73.8462 369.231" stroke="#B22222" stroke-width="4"/>
<path opacity="0.1" d="M147.692 295.385L73.8462 369.231" stroke="#B22222" stroke-width="4"/>
<path opacity="0.59" d="M147.692 295.385L221.538 369.231" stroke="#B22222" stroke-width="4"/>
<path opacity="0.92" d="M295.385 295.385L221.538 369.231" stroke="#B22222" stroke-width="4"/>
<path opacity="0.91" d="M295.385 295.385L369.231 369.231" stroke="#B22222" stroke-width="4"/>
<path opacity="0.12" d="M369.231 295.385L443.077 369.231" stroke="#B22222" stroke-width="4"/>
<path opacity="0.17" d="M443.077 295.385L516.923 369.231" stroke="#B22222" stroke-width="4"/>
<path opacity="0.19" d="M516.923 295.385L590.769 369.231" stroke="#B22222" stroke-width="4"/>
<path opacity="0.23" d="M590.769 295.385L664.615 369.231" stroke="#B22222" stroke-width="4"/>
<path opacity="0.31" d="M664.615 295.385L738.462 369.231" stroke="#B22222" stroke-width="4"/>
<path opacity="0.47" d="M812.308 295.385L738.462 369.231" stroke="#B22222" stroke-width="4"/>
<path opacity="0.41" d="M812.308 295.385L886.154 369.231" stroke="#B22222" stroke-width="4"/>
<path opacity="0.59" d="M886.154 295.385L960 369.231" stroke="#B22222" stroke-width="4"/>
<path opacity="0.54" d="M960 295.385L1033.85 369.231" stroke="#B22222" stroke-width="4"/>
<path opacity="0.92" d="M1033.85 295.385L1107.69 369.231" stroke="#B22222" stroke-width="4"/>
<path opacity="0.49" d="M0 369.231L73.8462 443.077" stroke="#B22222" stroke-width="4"/>
<path opacity="0.25" d="M147.692 369.231L73.8462 443.077" stroke="#B22222" stroke-width="4"/>
<path opacity="0.08" d="M147.692 369.231L221.538 443.077" stroke="#B22222" stroke-width="4"/>
<path opacity="0.3" d="M295.385 369.231L221.538 443.077" stroke="#B22222" stroke-width="4"/>
<path opacity="0.12" d="M295.385 369.231L369.231 443.077" stroke="#B22222" stroke-width="4"/>
<path opacity="0.57" d="M369.231 369.231L443.077 443.077" stroke="#B22222" stroke-width="4"/>
<path opacity="0.2" d="M443.077 369.231L516.923 443.077" stroke="#B22222" stroke-width="4"/>
<path opacity="0.66" d="M516.923 369.231L590.769 443.077" stroke="#B22222" stroke-width="4"/>
<path opacity="0.76" d="M590.769 369.231L664.615 443.077" stroke="#B22222" stroke-width="4"/>
<path opacity="0.16" d="M738.462 369.231L664.615 443.077" stroke="#B22222" stroke-width="4"/>
<path opacity="0.6" d="M738.462 369.231L812.308 443.077" stroke="#B22222" stroke-width="4"/>
<path opacity="0.49" d="M886.154 369.231L812.308 443.077" stroke="#B22222" stroke-width="4"/>
<path opacity="0.36" d="M886.154 369.231L960 443.077" stroke="#B22222" stroke-width="4"/>
<path opacity="0.08" d="M1033.85 369.231L960 443.077" stroke="#B22222" stroke-width="4"/>
<path opacity="0.15" d="M1107.69 369.231L1033.85 443.077" stroke="#B22222" stroke-width="4"/>
<path opacity="0.26" d="M0 443.077L73.8462 516.923" stroke="#B22222" stroke-width="4"/>
<path opacity="0.17" d="M147.692 443.077L73.8462 516.923" stroke="#B22222" stroke-width="4"/>
<path opacity="0.28" d="M147.692 443.077L221.538 516.923" stroke="#B22222" stroke-width="4"/>
<path opacity="0.63" d="M221.538 443.077L295.385 516.923" stroke="#B22222" stroke-width="4"/>
<path opacity="0.41" d="M369.231 443.077L295.385 516.923" stroke="#B22222" stroke-width="4"/>
<path opacity="0.52" d="M369.231 443.077L443.077 516.923" stroke="#B22222" stroke-width="4"/>
<path opacity="0.8" d="M443.077 443.077L516.923 516.923" stroke="#B22222" stroke-width="4"/>
<path opacity="0.93" d="M516.923 443.077L590.769 516.923" stroke="#B22222" stroke-width="4"/>
<path opacity="0.84" d="M590.769 443.077L664.615 516.923" stroke="#B22222" stroke-width="4"/>
<path opacity="0.66" d="M664.615 443.077L738.462 516.923" stroke="#B22222" stroke-width="4"/>
<path opacity="0.9" d="M738.462 443.077L812.308 516.923" stroke="#B22222" stroke-width="4"/>
<path opacity="0.25" d="M812.308 443.077L886.154 516.923" stroke="#B22222" stroke-width="4"/>
<path opacity="0.98" d="M886.154 443.077L960 516.923" stroke="#B22222" stroke-width="4"/>
<path opacity="0.27" d="M960 443.077L1033.85 516.923" stroke="#B22222" stroke-width="4"/>
<path opacity="0.57" d="M1107.69 443.077L1033.85 516.923" stroke="#B22222" stroke-width="4"/>
<path opacity="0.35" d="M73.8462 516.923L0 590.769" stroke="#B22222" stroke-width="4"/>
<path opacity="0.79" d="M73.8462 516.923L147.692 590.769" stroke="#B22222" stroke-width="4"/>
<path opacity="0.5" d="M221.538 516.923L147.692 590.769" stroke="#B22222" stroke-width="4"/>
<path opacity="0.63" d="M221.538 516.923L295.385 590.769" stroke="#B22222" stroke-width="4"/>
<path opacity="0.2" d="M369.231 516.923L295.385 590.769" stroke="#B22222" stroke-width="4"/>
<path opacity="0.39" d="M369.231 516.923L443.077 590.769" stroke="#B22222" stroke-width="4"/>
<path opacity="0.53" d="M443.077 516.923L516.923 590.769" stroke="#B22222" stroke-width="4"/>
<path opacity="0.12" d="M516.923 516.923L590.769 590.769" stroke="#B22222" stroke-width="4"/>
<path opacity="0.69" d="M590.769 516.923L664.615 590.769" stroke="#B22222" stroke-width="4"/>
<path opacity="0.77" d="M738.462 516.923L664.615 590.769" stroke="#B22222" stroke-width="4"/>
<path opacity="0.57" d="M738.462 516.923L812.308 590.769" stroke="#B22222" stroke-width="4"/>
<path opacity="0.71" d="M886.154 516.923L812.308 590.769" stroke="#B22222" stroke-width="4"/>
<path opacity="0.88" d="M886.154 516.923L960 590.769" stroke="#B22222" stroke-width="4"/>
<path opacity="0.24" d="M960 516.923L1033.85 590.769" stroke="#B22222" stroke-width="4"/>
<path opacity="0.85" d="M1107.69 516.923L1033.85 590.769" stroke="#B22222" stroke-width="4"/>
<path opacity="0.91" d="M73.8462 590.769L0 664.615" stroke="#B22222" stroke-width="4"/>
<path opacity="0.09" d="M73.8462 590.769L147.692 664.615" stroke="#B22222" stroke-width="4"/>
<path opacity="0.68" d="M147.692 590.769L221.538 664.615" stroke="#B22222" stroke-width="4"/>
<path opacity="0.41" d="M221.538 590.769L295.385 664.615" stroke="#B22222" stroke-width="4"/>
<path opacity="0.92" d="M295.385 590.769L369.231 664.615" stroke="#B22222" stroke-width="4"/>
<path opacity="0.78" d="M443.077 590.769L369.231 664.615" stroke="#B22222" stroke-width="4"/>
<path opacity="0.44" d="M443.077 590.769L516.923 664.615" stroke="#B22222" stroke-width="4"/>
<path opacity="0.6" d="M590.769 590.769L516.923 664.615" stroke="#B22222" stroke-width="4"/>
<path opacity="0.39" d="M590.769 590.769L664.615 664.615" stroke="#B22222" stroke-width="4"/>
<path opacity="0.55" d="M664.615 590.769L738.462 664.615" stroke="#B22222" stroke-width="4"/>
<path opacity="0.38" d="M738.462 590.769L812.308 664.615" stroke="#B22222" stroke-width="4"/>
<path opacity="0.9" d="M812.308 590.769L886.154 664.615" stroke="#B22222" stroke-width="4"/>
<path opacity="0.49" d="M886.154 590.769L960 664.615" stroke="#B22222" stroke-width="4"/>
<path opacity="0.62" d="M960 590.769L1033.85 664.615" stroke="#B22222" stroke-width="4"/>
<path opacity="0.9" d="M1107.69 590.769L1033.85 664.615" stroke="#B22222" stroke-width="4"/>
<path opacity="0.87" d="M0 664.615L73.8462 738.462" stroke="#B22222" stroke-width="4"/>
<path opacity="0.58" d="M73.8462 664.615L147.692 738.462" stroke="#B22222" stroke-width="4"/>
<path opacity="0.43" d="M147.692 664.615L221.538 738.462" stroke="#B22222" stroke-width="4"/>
<path opacity="0.36" d="M295.385 664.615L221.538 738.462" stroke="#B22222" stroke-width="4"/>
<path opacity="0.18" d="M295.385 664.615L369.231 738.462" stroke="#B22222" stroke-width="4"/>
<path opacity="0.89" d="M443.077 664.615L369.231 738.462" stroke="#B22222" stroke-width="4"/>
<path opacity="0.45" d="M443.077 664.615L516.923 738.462" stroke="#B22222" stroke-width="4"/>
<path opacity="0.63" d="M590.769 664.615L516.923 738.462" stroke="#B22222" stroke-width="4"/>
<path opacity="0.48" d="M664.615 664.615L590.769 738.462" stroke="#B22222" stroke-width="4"/>
<path opacity="0.96" d="M664.615 664.615L738.462 738.462" stroke="#B22222" stroke-width="4"/>
<path opacity="0.28" d="M738.462 664.615L812.308 738.462" stroke="#B22222" stroke-width="4"/>
<path opacity="0.18" d="M812.308 664.615L886.154 738.462" stroke="#B22222" stroke-width="4"/>
<path opacity="0.19" d="M886.154 664.615L960 738.462" stroke="#B22222" stroke-width="4"/>
<path opacity="0.46" d="M960 664.615L1033.85 738.462" stroke="#B22222" stroke-width="4"/>
<path opacity="0.43" d="M1033.85 664.615L1107.69 738.462" stroke="#B22222" stroke-width="4"/>
<path opacity="0.73" d="M0 738.462L73.8462 812.308" stroke="#B22222" stroke-width="4"/>
<path opacity="0.48" d="M73.8462 738.462L147.692 812.308" stroke="#B22222" stroke-width="4"/>
<path opacity="0.73" d="M147.692 738.462L221.538 812.308" stroke="#B22222" stroke-width="4"/>
<path opacity="0.45" d="M295.385 738.462L221.538 812.308" stroke="#B22222" stroke-width="4"/>
<path opacity="0.71" d="M295.385 738.462L369.231 812.308" stroke="#B22222" stroke-width="4"/>
<path opacity="0.14" d="M369.231 738.462L443.077 812.308" stroke="#B22222" stroke-width="4"/>
<path opacity="0.8" d="M443.077 738.462L516.923 812.308" stroke="#B22222" stroke-width="4"/>
<path opacity="0.52" d="M516.923 738.462L590.769 812.308" stroke="#B22222" stroke-width="4"/>
<path opacity="0.8" d="M590.769 738.462L664.615 812.308" stroke="#B22222" stroke-width="4"/>
<path opacity="0.54" d="M738.462 738.462L664.615 812.308" stroke="#B22222" stroke-width="4"/>
<path opacity="0.12" d="M812.308 738.462L738.462 812.308" stroke="#B22222" stroke-width="4"/>
<path opacity="0.6" d="M812.308 738.462L886.154 812.308" stroke="#B22222" stroke-width="4"/>
<path opacity="0.78" d="M886.154 738.462L960 812.308" stroke="#B22222" stroke-width="4"/>
<path opacity="0.26" d="M960 738.462L1033.85 812.308" stroke="#B22222" stroke-width="4"/>
<path opacity="0.91" d="M1107.69 738.462L1033.85 812.308" stroke="#B22222" stroke-width="4"/>
<path opacity="0.93" d="M0 812.308L73.8462 886.154" stroke="#B22222" stroke-width="4"/>
<path opacity="0.46" d="M73.8462 812.308L147.692 886.154" stroke="#B22222" stroke-width="4"/>
<path opacity="0.56" d="M147.692 812.308L221.538 886.154" stroke="#B22222" stroke-width="4"/>
<path opacity="0.62" d="M295.385 812.308L221.538 886.154" stroke="#B22222" stroke-width="4"/>
<path opacity="0.94" d="M295.385 812.308L369.231 886.154" stroke="#B22222" stroke-width="4"/>
<path opacity="0.08" d="M443.077 812.308L369.231 886.154" stroke="#B22222" stroke-width="4"/>
<path opacity="0.95" d="M516.923 812.308L443.077 886.154" stroke="#B22222" stroke-width="4"/>
<path opacity="0.8" d="M516.923 812.308L590.769 886.154" stroke="#B22222" stroke-width="4"/>
<path opacity="0.4" d="M664.615 812.308L590.769 886.154" stroke="#B22222" stroke-width="4"/>
<path opacity="0.75" d="M664.615 812.308L738.462 886.154" stroke="#B22222" stroke-width="4"/>
<path opacity="0.83" d="M738.462 812.308L812.308 886.154" stroke="#B22222" stroke-width="4"/>
<path opacity="0.92" d="M812.308 812.308L886.154 886.154" stroke="#B22222" stroke-width="4"/>
<path opacity="0.32" d="M960 812.308L886.154 886.154" stroke="#B22222" stroke-width="4"/>
<path opacity="0.67" d="M960 812.308L1033.85 886.154" stroke="#B22222" stroke-width="4"/>
<path opacity="0.48" d="M1033.85 812.308L1107.69 886.154" stroke="#B22222" stroke-width="4"/>
<path opacity="0.76" d="M0 886.154L73.8462 960" stroke="#B22222" stroke-width="4"/>
<path opacity="0.08" d="M73.8462 886.154L147.692 960" stroke="#B22222" stroke-width="4"/>
<path opacity="0.85" d="M147.692 886.154L221.538 960" stroke="#B22222" stroke-width="4"/>
<path opacity="0.45" d="M221.538 886.154L295.385 960" stroke="#B22222" stroke-width="4"/>
<path opacity="0.72" d="M295.385 886.154L369.231 960" stroke="#B22222" stroke-width="4"/>
<path opacity="0.63" d="M369.231 886.154L443.077 960" stroke="#B22222" stroke-width="4"/>
<path opacity="0.83" d="M443.077 886.154L516.923 960" stroke="#B22222" stroke-width="4"/>
<path opacity="0.08" d="M516.923 886.154L590.769 960" stroke="#B22222" stroke-width="4"/>
<path opacity="0.95" d="M590.769 886.154L664.615 960" stroke="#B22222" stroke-width="4"/>
<path opacity="0.45" d="M738.462 886.154L664.615 960" stroke="#B22222" stroke-width="4"/>
<path opacity="0.86" d="M738.462 886.154L812.308 960" stroke="#B22222" stroke-width="4"/>
<path opacity="0.63" d="M812.308 886.154L886.154 960" stroke="#B22222" stroke-width="4"/>
<path opacity="0.9" d="M886.154 886.154L960 960" stroke="#B22222" stroke-width="4"/>
<path opacity="0.12" d="M960 886.154L1033.85 960" stroke="#B22222" stroke-width="4"/>
<path opacity="0.75" d="M1033.85 886.154L1107.69 960" stroke="#B22222" stroke-width="4"/>
<path opacity="0.64" d="M0 960L73.8462 1033.85" stroke="#B22222" stroke-width="4"/>
<path opacity="0.72" d="M147.692 960L73.8462 1033.85" stroke="#B22222" stroke-width="4"/>
<path opacity="0.12" d="M147.692 960L221.538 1033.85" stroke="#B22222" stroke-width="4"/>
<path opacity="0.2" d="M295.385 960L221.538 1033.85" stroke="#B22222" stroke-width="4"/>
<path opacity="0.69" d="M295.385 960L369.231 1033.85" stroke="#B22222" stroke-width="4"/>
<path opacity="0.45" d="M369.231 960L443.077 1033.85" stroke="#B22222" stroke-width="4"/>
<path opacity="0.86" d="M443.077 960L516.923 1033.85" stroke="#B22222" stroke-width="4"/>
<path opacity="0.67" d="M516.923 960L590.769 1033.85" stroke="#B22222" stroke-width="4"/>
<path d="M590.769 960L664.615 1033.85" stroke="#B22222" stroke-width="4"/>
<path opacity="0.49" d="M664.615 960L738.462 1033.85" stroke="#B22222" stroke-width="4"/>
<path opacity="0.62" d="M812.308 960L738.462 1033.85" stroke="#B22222" stroke-width="4"/>
<path opacity="0.14" d="M812.308 960L886.154 1033.85" stroke="#B22222" stroke-width="4"/>
<path opacity="0.35" d="M886.154 960L960 1033.85" stroke="#B22222" stroke-width="4"/>
<path opacity="0.88" d="M1033.85 960L960 1033.85" stroke="#B22222" stroke-width="4"/>
<path opacity="0.72" d="M1033.85 960L1107.69 1033.85" stroke="#B22222" stroke-width="4"/>
<path opacity="0.87" d="M0 1033.85L73.8462 1107.69" stroke="#B22222" stroke-width="4"/>
<path opacity="0.18" d="M73.8462 1033.85L147.692 1107.69" stroke="#B22222" stroke-width="4"/>
<path opacity="0.22" d="M221.538 1033.85L147.692 1107.69" stroke="#B22222" stroke-width="4"/>
<path opacity="0.91" d="M221.538 1033.85L295.385 1107.69" stroke="#B22222" stroke-width="4"/>
<path opacity="0.81" d="M295.385 1033.85L369.231 1107.69" stroke="#B22222" stroke-width="4"/>
<path opacity="0.63" d="M369.231 1033.85L443.077 1107.69" stroke="#B22222" stroke-width="4"/>
<path opacity="0.16" d="M516.923 1033.85L443.077 1107.69" stroke="#B22222" stroke-width="4"/>
<path opacity="0.38" d="M516.923 1033.85L590.769 1107.69" stroke="#B22222" stroke-width="4"/>
<path opacity="0.18" d="M590.769 1033.85L664.615 1107.69" stroke="#B22222" stroke-width="4"/>
<path opacity="0.14" d="M664.615 1033.85L738.462 1107.69" stroke="#B22222" stroke-width="4"/>
<path opacity="0.68" d="M738.462 1033.85L812.308 1107.69" stroke="#B22222" stroke-width="4"/>
<path opacity="0.62" d="M812.308 1033.85L886.154 1107.69" stroke="#B22222" stroke-width="4"/>
<path opacity="0.09" d="M960 1033.85L886.154 1107.69" stroke="#B22222" stroke-width="4"/>
<path opacity="0.99" d="M960 1033.85L1033.85 1107.69" stroke="#B22222" stroke-width="4"/>
<path opacity="0.99" d="M1033.85 1033.85L1107.69 1107.69" stroke="#B22222" stroke-width="4"/>
<path opacity="0.98" d="M0 1107.69L73.8462 1181.54" stroke="#B22222" stroke-width="4"/>
<path opacity="0.99" d="M73.8462 1107.69L147.692 1181.54" stroke="#B22222" stroke-width="4"/>
<path opacity="0.19" d="M221.538 1107.69L147.692 1181.54" stroke="#B22222" stroke-width="4"/>
<path opacity="0.81" d="M221.538 1107.69L295.385 1181.54" stroke="#B22222" stroke-width="4"/>
<path opacity="0.07" d="M295.385 1107.69L369.231 1181.54" stroke="#B22222" stroke-width="4"/>
<path opacity="0.17" d="M369.231 1107.69L443.077 1181.54" stroke="#B22222" stroke-width="4"/>
<path opacity="0.58" d="M443.077 1107.69L516.923 1181.54" stroke="#B22222" stroke-width="4"/>
<path opacity="0.39" d="M516.923 1107.69L590.769 1181.54" stroke="#B22222" stroke-width="4"/>
<path opacity="0.85" d="M590.769 1107.69L664.615 1181.54" stroke="#B22222" stroke-width="4"/>
<path opacity="0.37" d="M664.615 1107.69L738.462 1181.54" stroke="#B22222" stroke-width="4"/>
<path opacity="0.91" d="M812.308 1107.69L738.462 1181.54" stroke="#B22222" stroke-width="4"/>
<path opacity="0.07" d="M812.308 1107.69L886.154 1181.54" stroke="#B22222" stroke-width="4"/>
<path opacity="0.45" d="M886.154 1107.69L960 1181.54" stroke="#B22222" stroke-width="4"/>
<path opacity="0.34" d="M960 1107.69L1033.85 1181.54" stroke="#B22222" stroke-width="4"/>
<path opacity="0.76" d="M1033.85 1107.69L1107.69 1181.54" stroke="#B22222" stroke-width="4"/>
<path opacity="0.38" d="M0 1181.54L73.8462 1255.38" stroke="#B22222" stroke-width="4"/>
<path opacity="0.44" d="M73.8462 1181.54L147.692 1255.38" stroke="#B22222" stroke-width="4"/>
<path opacity="0.48" d="M147.692 1181.54L221.538 1255.38" stroke="#B22222" stroke-width="4"/>
<path opacity="0.08" d="M221.538 1181.54L295.385 1255.38" stroke="#B22222" stroke-width="4"/>
<path opacity="0.68" d="M295.385 1181.54L369.231 1255.38" stroke="#B22222" stroke-width="4"/>
<path opacity="0.97" d="M443.077 1181.54L369.231 1255.38" stroke="#B22222" stroke-width="4"/>
<path opacity="0.93" d="M516.923 1181.54L443.077 1255.38" stroke="#B22222" stroke-width="4"/>
<path opacity="0.18" d="M590.769 1181.54L516.923 1255.38" stroke="#B22222" stroke-width="4"/>
<path opacity="0.24" d="M590.769 1181.54L664.615 1255.38" stroke="#B22222" stroke-width="4"/>
<path opacity="0.45" d="M664.615 1181.54L738.462 1255.38" stroke="#B22222" stroke-width="4"/>
<path opacity="0.89" d="M812.308 1181.54L738.462 1255.38" stroke="#B22222" stroke-width="4"/>
<path opacity="0.94" d="M812.308 1181.54L886.154 1255.38" stroke="#B22222" stroke-width="4"/>
<path opacity="0.24" d="M886.154 1181.54L960 1255.38" stroke="#B22222" stroke-width="4"/>
<path opacity="0.15" d="M960 1181.54L1033.85 1255.38" stroke="#B22222" stroke-width="4"/>
<path opacity="0.55" d="M1107.69 1181.54L1033.85 1255.38" stroke="#B22222" stroke-width="4"/>
<path opacity="0.86" d="M0 1255.38L73.8462 1329.23" stroke="#B22222" stroke-width="4"/>
<path opacity="0.59" d="M73.8462 1255.38L147.692 1329.23" stroke="#B22222" stroke-width="4"/>
<path opacity="0.6" d="M221.538 1255.38L147.692 1329.23" stroke="#B22222" stroke-width="4"/>
<path opacity="0.42" d="M295.385 1255.38L221.538 1329.23" stroke="#B22222" stroke-width="4"/>
<path opacity="0.61" d="M295.385 1255.38L369.231 1329.23" stroke="#B22222" stroke-width="4"/>
<path opacity="0.58" d="M369.231 1255.38L443.077 1329.23" stroke="#B22222" stroke-width="4"/>
<path opacity="0.77" d="M443.077 1255.38L516.923 1329.23" stroke="#B22222" stroke-width="4"/>
<path opacity="0.16" d="M590.769 1255.38L516.923 1329.23" stroke="#B22222" stroke-width="4"/>
<path opacity="0.3" d="M590.769 1255.38L664.615 1329.23" stroke="#B22222" stroke-width="4"/>
<path opacity="0.21" d="M664.615 1255.38L738.462 1329.23" stroke="#B22222" stroke-width="4"/>
<path opacity="0.93" d="M738.462 1255.38L812.308 1329.23" stroke="#B22222" stroke-width="4"/>
<path opacity="0.2" d="M812.308 1255.38L886.154 1329.23" stroke="#B22222" stroke-width="4"/>
<path opacity="0.44" d="M886.154 1255.38L960 1329.23" stroke="#B22222" stroke-width="4"/>
<path opacity="0.78" d="M960 1255.38L1033.85 1329.23" stroke="#B22222" stroke-width="4"/>
<path opacity="0.76" d="M1033.85 1255.38L1107.69 1329.23" stroke="#B22222" stroke-width="4"/>
<path opacity="0.64" d="M0 1329.23L73.8462 1403.08" stroke="#B22222" stroke-width="4"/>
<path opacity="0.9" d="M147.692 1329.23L73.8462 1403.08" stroke="#B22222" stroke-width="4"/>
<path opacity="0.89" d="M147.692 1329.23L221.538 1403.08" stroke="#B22222" stroke-width="4"/>
<path opacity="0.27" d="M221.538 1329.23L295.385 1403.08" stroke="#B22222" stroke-width="4"/>
<path opacity="0.39" d="M295.385 1329.23L369.231 1403.08" stroke="#B22222" stroke-width="4"/>
<path opacity="0.25" d="M443.077 1329.23L369.231 1403.08" stroke="#B22222" stroke-width="4"/>
<path opacity="0.41" d="M443.077 1329.23L516.923 1403.08" stroke="#B22222" stroke-width="4"/>
<path opacity="0.16" d="M516.923 1329.23L590.769 1403.08" stroke="#B22222" stroke-width="4"/>
<path opacity="0.15" d="M590.769 1329.23L664.615 1403.08" stroke="#B22222" stroke-width="4"/>
<path opacity="0.87" d="M738.462 1329.23L664.615 1403.08" stroke="#B22222" stroke-width="4"/>
<path opacity="0.66" d="M738.462 1329.23L812.308 1403.08" stroke="#B22222" stroke-width="4"/>
<path opacity="0.07" d="M812.308 1329.23L886.154 1403.08" stroke="#B22222" stroke-width="4"/>
<path opacity="0.14" d="M886.154 1329.23L960 1403.08" stroke="#B22222" stroke-width="4"/>
<path opacity="0.69" d="M960 1329.23L1033.85 1403.08" stroke="#B22222" stroke-width="4"/>
<path opacity="0.59" d="M1107.69 1329.23L1033.85 1403.08" stroke="#B22222" stroke-width="4"/>
<path d="M0 1403.08L73.8462 1476.92" stroke="#B22222" stroke-width="4"/>
<path opacity="0.11" d="M73.8462 1403.08L147.692 1476.92" stroke="#B22222" stroke-width="4"/>
<path opacity="0.98" d="M221.538 1403.08L147.692 1476.92" stroke="#B22222" stroke-width="4"/>
<path opacity="0.11" d="M221.538 1403.08L295.385 1476.92" stroke="#B22222" stroke-width="4"/>
<path opacity="0.77" d="M295.385 1403.08L369.231 1476.92" stroke="#B22222" stroke-width="4"/>
<path opacity="0.82" d="M369.231 1403.08L443.077 1476.92" stroke="#B22222" stroke-width="4"/>
<path opacity="0.35" d="M443.077 1403.08L516.923 1476.92" stroke="#B22222" stroke-width="4"/>
<path opacity="0.6" d="M516.923 1403.08L590.769 1476.92" stroke="#B22222" stroke-width="4"/>
<path opacity="0.5" d="M590.769 1403.08L664.615 1476.92" stroke="#B22222" stroke-width="4"/>
<path opacity="0.72" d="M664.615 1403.08L738.462 1476.92" stroke="#B22222" stroke-width="4"/>
<path opacity="0.09" d="M738.462 1403.08L812.308 1476.92" stroke="#B22222" stroke-width="4"/>
<path opacity="0.75" d="M812.308 1403.08L886.154 1476.92" stroke="#B22222" stroke-width="4"/>
<path opacity="0.1" d="M886.154 1403.08L960 1476.92" stroke="#B22222" stroke-width="4"/>
<path opacity="0.89" d="M1033.85 1403.08L960 1476.92" stroke="#B22222" stroke-width="4"/>
<path opacity="0.52" d="M1033.85 1403.08L1107.69 1476.92" stroke="#B22222" stroke-width="4"/>
<path opacity="0.57" d="M73.8462 1476.92L0 1550.77" stroke="#B22222" stroke-width="4"/>
<path opacity="0.11" d="M73.8462 1476.92L147.692 1550.77" stroke="#B22222" stroke-width="4"/>
<path opacity="0.44" d="M147.692 1476.92L221.538 1550.77" stroke="#B22222" stroke-width="4"/>
<path opacity="0.53" d="M295.385 1476.92L221.538 1550.77" stroke="#B22222" stroke-width="4"/>
<path opacity="0.65" d="M295.385 1476.92L369.231 1550.77" stroke="#B22222" stroke-width="4"/>
<path opacity="0.44" d="M369.231 1476.92L443.077 1550.77" stroke="#B22222" stroke-width="4"/>
<path opacity="0.67" d="M443.077 1476.92L516.923 1550.77" stroke="#B22222" stroke-width="4"/>
<path opacity="0.76" d="M590.769 1476.92L516.923 1550.77" stroke="#B22222" stroke-width="4"/>
<path opacity="0.8" d="M590.769 1476.92L664.615 1550.77" stroke="#B22222" stroke-width="4"/>
<path opacity="0.79" d="M664.615 1476.92L738.462 1550.77" stroke="#B22222" stroke-width="4"/>
<path opacity="0.73" d="M738.462 1476.92L812.308 1550.77" stroke="#B22222" stroke-width="4"/>
<path opacity="0.7" d="M812.308 1476.92L886.154 1550.77" stroke="#B22222" stroke-width="4"/>
<path opacity="0.24" d="M886.154 1476.92L960 1550.77" stroke="#B22222" stroke-width="4"/>
<path opacity="0.84" d="M960 1476.92L1033.85 1550.77" stroke="#B22222" stroke-width="4"/>
<path opacity="0.23" d="M1033.85 1476.92L1107.69 1550.77" stroke="#B22222" stroke-width="4"/>
<path opacity="0.92" d="M0 1550.77L73.8462 1624.62" stroke="#B22222" stroke-width="4"/>
<path opacity="0.89" d="M147.692 1550.77L73.8462 1624.62" stroke="#B22222" stroke-width="4"/>
<path opacity="0.42" d="M147.692 1550.77L221.538 1624.62" stroke="#B22222" stroke-width="4"/>
<path opacity="0.25" d="M295.385 1550.77L221.538 1624.62" stroke="#B22222" stroke-width="4"/>
<path opacity="0.72" d="M295.385 1550.77L369.231 1624.62" stroke="#B22222" stroke-width="4"/>
<path opacity="0.24" d="M443.077 1550.77L369.231 1624.62" stroke="#B22222" stroke-width="4"/>
<path opacity="0.22" d="M516.923 1550.77L443.077 1624.62" stroke="#B22222" stroke-width="4"/>
<path opacity="0.65" d="M516.923 1550.77L590.769 1624.62" stroke="#B22222" stroke-width="4"/>
<path opacity="0.55" d="M590.769 1550.77L664.615 1624.62" stroke="#B22222" stroke-width="4"/>
<path opacity="0.69" d="M664.615 1550.77L738.462 1624.62" stroke="#B22222" stroke-width="4"/>
<path opacity="0.35" d="M738.462 1550.77L812.308 1624.62" stroke="#B22222" stroke-width="4"/>
<path opacity="0.71" d="M812.308 1550.77L886.154 1624.62" stroke="#B22222" stroke-width="4"/>
<path opacity="0.86" d="M886.154 1550.77L960 1624.62" stroke="#B22222" stroke-width="4"/>
<path opacity="0.23" d="M960 1550.77L1033.85 1624.62" stroke="#B22222" stroke-width="4"/>
<path opacity="0.65" d="M1033.85 1550.77L1107.69 1624.62" stroke="#B22222" stroke-width="4"/>
<path opacity="0.95" d="M0 1624.62L73.8462 1698.46" stroke="#B22222" stroke-width="4"/>
<path opacity="0.99" d="M73.8462 1624.62L147.692 1698.46" stroke="#B22222" stroke-width="4"/>
<path opacity="0.53" d="M221.538 1624.62L147.692 1698.46" stroke="#B22222" stroke-width="4"/>
<path opacity="0.87" d="M295.385 1624.62L221.538 1698.46" stroke="#B22222" stroke-width="4"/>
<path opacity="0.43" d="M369.231 1624.62L295.385 1698.46" stroke="#B22222" stroke-width="4"/>
<path opacity="0.31" d="M369.231 1624.62L443.077 1698.46" stroke="#B22222" stroke-width="4"/>
<path opacity="0.45" d="M443.077 1624.62L516.923 1698.46" stroke="#B22222" stroke-width="4"/>
<path opacity="0.61" d="M590.769 1624.62L516.923 1698.46" stroke="#B22222" stroke-width="4"/>
<path opacity="0.19" d="M590.769 1624.62L664.615 1698.46" stroke="#B22222" stroke-width="4"/>
<path opacity="0.6" d="M664.615 1624.62L738.462 1698.46" stroke="#B22222" stroke-width="4"/>
<path opacity="0.92" d="M738.462 1624.62L812.308 1698.46" stroke="#B22222" stroke-width="4"/>
<path opacity="0.32" d="M812.308 1624.62L886.154 1698.46" stroke="#B22222" stroke-width="4"/>
<path opacity="0.73" d="M960 1624.62L886.154 1698.46" stroke="#B22222" stroke-width="4"/>
<path opacity="0.92" d="M960 1624.62L1033.85 1698.46" stroke="#B22222" stroke-width="4"/>
<path opacity="0.93" d="M1033.85 1624.62L1107.69 1698.46" stroke="#B22222" stroke-width="4"/>
<path opacity="0.62" d="M0 1698.46L73.8462 1772.31" stroke="#B22222" stroke-width="4"/>
<path opacity="0.43" d="M73.8462 1698.46L147.692 1772.31" stroke="#B22222" stroke-width="4"/>
<path opacity="0.25" d="M147.692 1698.46L221.538 1772.31" stroke="#B22222" stroke-width="4"/>
<path opacity="0.66" d="M221.538 1698.46L295.385 1772.31" stroke="#B22222" stroke-width="4"/>
<path opacity="0.15" d="M295.385 1698.46L369.231 1772.31" stroke="#B22222" stroke-width="4"/>
<path opacity="0.52" d="M369.231 1698.46L443.077 1772.31" stroke="#B22222" stroke-width="4"/>
<path opacity="0.41" d="M443.077 1698.46L516.923 1772.31" stroke="#B22222" stroke-width="4"/>
<path opacity="0.21" d="M516.923 1698.46L590.769 1772.31" stroke="#B22222" stroke-width="4"/>
<path opacity="0.48" d="M590.769 1698.46L664.615 1772.31" stroke="#B22222" stroke-width="4"/>
<path opacity="0.51" d="M664.615 1698.46L738.462 1772.31" stroke="#B22222" stroke-width="4"/>
<path opacity="0.96" d="M738.462 1698.46L812.308 1772.31" stroke="#B22222" stroke-width="4"/>
<path opacity="0.88" d="M812.308 1698.46L886.154 1772.31" stroke="#B22222" stroke-width="4"/>
<path opacity="0.78" d="M960 1698.46L886.154 1772.31" stroke="#B22222" stroke-width="4"/>
<path opacity="0.3" d="M960 1698.46L1033.85 1772.31" stroke="#B22222" stroke-width="4"/>
<path opacity="0.56" d="M1107.69 1698.46L1033.85 1772.31" stroke="#B22222" stroke-width="4"/>
<path opacity="0.41" d="M0 1772.31L73.8462 1846.15" stroke="#B22222" stroke-width="4"/>
<path opacity="0.63" d="M147.692 1772.31L73.8462 1846.15" stroke="#B22222" stroke-width="4"/>
<path opacity="0.31" d="M147.692 1772.31L221.538 1846.15" stroke="#B22222" stroke-width="4"/>
<path opacity="0.76" d="M221.538 1772.31L295.385 1846.15" stroke="#B22222" stroke-width="4"/>
<path opacity="0.23" d="M295.385 1772.31L369.231 1846.15" stroke="#B22222" stroke-width="4"/>
<path opacity="0.11" d="M443.077 1772.31L369.231 1846.15" stroke="#B22222" stroke-width="4"/>
<path opacity="0.47" d="M443.077 1772.31L516.923 1846.15" stroke="#B22222" stroke-width="4"/>
<path opacity="0.38" d="M516.923 1772.31L590.769 1846.15" stroke="#B22222" stroke-width="4"/>
<path opacity="0.48" d="M590.769 1772.31L664.615 1846.15" stroke="#B22222" stroke-width="4"/>
<path opacity="0.87" d="M738.462 1772.31L664.615 1846.15" stroke="#B22222" stroke-width="4"/>
<path opacity="0.75" d="M738.462 1772.31L812.308 1846.15" stroke="#B22222" stroke-width="4"/>
<path opacity="0.75" d="M886.154 1772.31L812.308 1846.15" stroke="#B22222" stroke-width="4"/>
<path opacity="0.35" d="M960 1772.31L886.154 1846.15" stroke="#B22222" stroke-width="4"/>
<path opacity="0.43" d="M1033.85 1772.31L960 1846.15" stroke="#B22222" stroke-width="4"/>
<path opacity="0.65" d="M1033.85 1772.31L1107.69 1846.15" stroke="#B22222" stroke-width="4"/>
<path opacity="0.22" d="M0 1846.15L73.8462 1920" stroke="#B22222" stroke-width="4"/>
<path opacity="0.31" d="M73.8462 1846.15L147.692 1920" stroke="#B22222" stroke-width="4"/>
<path opacity="0.29" d="M221.538 1846.15L147.692 1920" stroke="#B22222" stroke-width="4"/>
<path opacity="0.3" d="M221.538 1846.15L295.385 1920" stroke="#B22222" stroke-width="4"/>
<path opacity="0.32" d="M295.385 1846.15L369.231 1920" stroke="#B22222" stroke-width="4"/>
<path opacity="0.13" d="M369.231 1846.15L443.077 1920" stroke="#B22222" stroke-width="4"/>
<path opacity="0.67" d="M516.923 1846.15L443.077 1920" stroke="#B22222" stroke-width="4"/>
<path opacity="0.47" d="M516.923 1846.15L590.769 1920" stroke="#B22222" stroke-width="4"/>
<path opacity="0.97" d="M590.769 1846.15L664.615 1920" stroke="#B22222" stroke-width="4"/>
<path opacity="0.41" d="M664.615 1846.15L738.462 1920" stroke="#B22222" stroke-width="4"/>
<path opacity="0.87" d="M738.462 1846.15L812.308 1920" stroke="#B22222" stroke-width="4"/>
<path opacity="0.28" d="M886.154 1846.15L812.308 1920" stroke="#B22222" stroke-width="4"/>
<path opacity="0.7" d="M886.154 1846.15L960 1920" stroke="#B22222" stroke-width="4"/>
<path opacity="0.09" d="M960 1846.15L1033.85 1920" stroke="#B22222" stroke-width="4"/>
<path opacity="0.85" d="M1033.85 1846.15L1107.69 1920" stroke="#B22222" stroke-width="4"/>
</g>
<defs>
<clipPath id="clip0_2_2">
<rect width="1080" height="1920" fill="white"/>
</clipPath>
</defs>
</svg>
