<svg width="1080" height="1920" viewBox="0 0 1080 1920" fill="none" xmlns="http://www.w3.org/2000/svg">
<g clip-path="url(#clip0_2_2)">
<path opacity="0.8" d="M1347.2 1652.38L908.518 1129.57C907.389 1128.23 905.384 1128.05 904.039 1129.18C902.694 1130.31 902.518 1132.32 903.647 1133.66L1342.33 1656.47C1343.46 1657.81 1345.47 1657.99 1346.81 1656.86C1348.16 1655.73 1348.33 1653.72 1347.2 1652.38Z" fill="#B22222"/>
<path opacity="0.73" d="M1146.32 837.031L1037.33 707.141C1036.21 705.796 1034.2 705.621 1032.86 706.749C1031.51 707.878 1031.33 709.883 1032.46 711.228L1141.45 841.118C1142.58 842.463 1144.59 842.638 1145.93 841.51C1147.28 840.381 1147.45 838.376 1146.32 837.031Z" fill="#B22222"/>
<path opacity="0.74" d="M765.176 1033.09L295.155 472.936C294.026 471.591 292.021 471.415 290.676 472.544C289.331 473.673 289.155 475.678 290.284 477.023L760.305 1037.17C761.434 1038.52 763.439 1038.69 764.784 1037.56C766.129 1036.44 766.305 1034.43 765.176 1033.09Z" fill="#B22222"/>
<path opacity="0.34" d="M1175.01 1630.17L1051.04 1482.42C1049.91 1481.08 1047.9 1480.9 1046.56 1482.03C1045.21 1483.16 1045.04 1485.16 1046.17 1486.51L1170.14 1634.26C1171.27 1635.6 1173.28 1635.78 1174.62 1634.65C1175.97 1633.52 1176.14 1631.52 1175.01 1630.17Z" fill="#B22222"/>
<path opacity="0.33" d="M369.907 531.965L185.986 312.776C184.857 311.431 182.852 311.256 181.507 312.384C180.162 313.513 179.986 315.518 181.115 316.863L365.036 536.052C366.165 537.397 368.17 537.573 369.515 536.444C370.86 535.315 371.036 533.31 369.907 531.965Z" fill="#B22222"/>
<path opacity="0.6" d="M211.397 1058.77L-24.2949 777.887C-25.4236 776.542 -27.4289 776.367 -28.7739 777.495C-30.119 778.624 -30.2944 780.629 -29.1658 781.974L206.526 1062.86C207.655 1064.21 209.66 1064.38 211.005 1063.25C212.35 1062.12 212.526 1060.12 211.397 1058.77Z" fill="#B22222"/>
<path opacity="0.79" d="M33.6677 1779.3L-109.382 1608.82C-110.511 1607.48 -112.516 1607.3 -113.861 1608.43C-115.206 1609.56 -115.382 1611.56 -114.253 1612.91L28.7968 1783.39C29.9254 1784.74 31.9308 1784.91 33.2758 1783.78C34.6209 1782.65 34.7963 1780.65 33.6677 1779.3Z" fill="#B22222"/>
<path opacity="0.38" d="M1052.98 1129.99L672.873 676.999C671.744 675.654 669.739 675.478 668.394 676.607C667.049 677.736 666.873 679.741 668.002 681.086L1048.11 1134.08C1049.23 1135.42 1051.24 1135.6 1052.59 1134.47C1053.93 1133.34 1054.11 1131.33 1052.98 1129.99Z" fill="#B22222"/>
<path opacity="0.47" d="M1258.5 757.491L1026.89 481.475C1025.77 480.13 1023.76 479.954 1022.42 481.083C1021.07 482.212 1020.9 484.217 1022.02 485.562L1253.63 761.578C1254.76 762.923 1256.76 763.098 1258.11 761.97C1259.45 760.841 1259.63 758.836 1258.5 757.491Z" fill="#B22222"/>
<path opacity="0.71" d="M1085.39 232.301L966.862 91.046C965.733 89.701 963.728 89.5255 962.383 90.6542C961.038 91.7828 960.862 93.7881 961.991 95.1332L1080.52 236.388C1081.65 237.733 1083.65 237.909 1085 236.78C1086.34 235.651 1086.52 233.646 1085.39 232.301Z" fill="#B22222"/>
<path opacity="0.26" d="M539.091 1753.42L411.027 1600.8C409.898 1599.45 407.893 1599.28 406.548 1600.4C405.203 1601.53 405.027 1603.54 406.156 1604.88L534.22 1757.5C535.348 1758.85 537.354 1759.02 538.699 1757.9C540.044 1756.77 540.219 1754.76 539.091 1753.42Z" fill="#B22222"/>
<path opacity="0.88" d="M205.346 1268.51L62.2962 1098.03C61.1676 1096.68 59.1623 1096.51 57.8172 1097.63C56.4722 1098.76 56.2967 1100.77 57.4254 1102.11L200.475 1272.59C201.604 1273.94 203.609 1274.11 204.954 1272.99C206.299 1271.86 206.475 1269.85 205.346 1268.51Z" fill="#B22222"/>
<path opacity="0.74" d="M1000.52 594.035L534.581 38.7569C533.452 37.4118 531.447 37.2364 530.102 38.365C528.757 39.4936 528.581 41.499 529.71 42.844L995.644 598.123C996.773 599.468 998.778 599.643 1000.12 598.514C1001.47 597.386 1001.64 595.38 1000.52 594.035Z" fill="#B22222"/>
<path opacity="0.16" d="M621.744 301.937L379.241 12.9323C378.112 11.5872 376.107 11.4118 374.762 12.5404C373.417 13.6691 373.241 15.6744 374.37 17.0194L616.874 306.024C618.002 307.369 620.007 307.545 621.353 306.416C622.698 305.287 622.873 303.282 621.744 301.937Z" fill="#B22222"/>
<path opacity="0.13" d="M731.886 962.581L561.588 759.628C560.46 758.283 558.454 758.108 557.109 759.236C555.764 760.365 555.589 762.37 556.718 763.715L727.015 966.668C728.144 968.013 730.149 968.188 731.494 967.06C732.839 965.931 733.015 963.926 731.886 962.581Z" fill="#B22222"/>
<path opacity="0.3" d="M124.736 1408.34L92.0387 1369.37C90.9101 1368.03 88.9048 1367.85 87.5597 1368.98C86.2147 1370.11 86.0393 1372.12 87.1679 1373.46L119.865 1412.43C120.994 1413.77 122.999 1413.95 124.344 1412.82C125.689 1411.69 125.865 1409.69 124.736 1408.34Z" fill="#B22222"/>
<path opacity="0.07" d="M44.9443 1537.91L-137.615 1320.34C-138.743 1319 -140.749 1318.82 -142.094 1319.95C-143.439 1321.08 -143.614 1323.09 -142.486 1324.43L40.0734 1542C41.2021 1543.34 43.2074 1543.52 44.5524 1542.39C45.8975 1541.26 46.0729 1539.25 44.9443 1537.91Z" fill="#B22222"/>
<path opacity="0.42" d="M485.804 452.364L417.685 371.183C416.556 369.837 414.551 369.662 413.206 370.791C411.861 371.919 411.685 373.925 412.814 375.27L480.933 456.451C482.062 457.796 484.067 457.971 485.412 456.843C486.757 455.714 486.933 453.709 485.804 452.364Z" fill="#B22222"/>
<path opacity="0.99" d="M1195.6 623.239L1000.78 391.061C999.649 389.716 997.644 389.541 996.299 390.669C994.954 391.798 994.778 393.803 995.907 395.148L1190.73 627.326C1191.86 628.671 1193.86 628.847 1195.21 627.718C1196.55 626.589 1196.73 624.584 1195.6 623.239Z" fill="#B22222"/>
<path opacity="0.77" d="M1203.23 1771.97L734.57 1213.45C733.441 1212.1 731.436 1211.93 730.091 1213.06C728.746 1214.19 728.57 1216.19 729.699 1217.54L1198.36 1776.06C1199.49 1777.41 1201.49 1777.58 1202.84 1776.45C1204.18 1775.33 1204.36 1773.32 1203.23 1771.97Z" fill="#B22222"/>
<path opacity="0.71" d="M669.206 1552.61L433.514 1271.73C432.386 1270.38 430.38 1270.21 429.035 1271.34C427.69 1272.46 427.515 1274.47 428.644 1275.81L664.335 1556.7C665.464 1558.05 667.469 1558.22 668.814 1557.09C670.159 1555.96 670.335 1553.96 669.206 1552.61Z" fill="#B22222"/>
<path opacity="0.95" d="M434.856 1498.54L286.357 1321.56C285.228 1320.22 283.223 1320.04 281.878 1321.17C280.533 1322.3 280.357 1324.31 281.486 1325.65L429.985 1502.63C431.114 1503.97 433.119 1504.15 434.464 1503.02C435.809 1501.89 435.985 1499.88 434.856 1498.54Z" fill="#B22222"/>
<path opacity="0.49" d="M1112.48 1116.27L854.991 809.408C853.862 808.063 851.857 807.887 850.512 809.016C849.167 810.144 848.991 812.15 850.12 813.495L1107.61 1120.36C1108.74 1121.7 1110.74 1121.88 1112.09 1120.75C1113.43 1119.62 1113.61 1117.62 1112.48 1116.27Z" fill="#B22222"/>
<path opacity="0.8" d="M315.933 1502.56L78.8788 1220.05C77.7501 1218.7 75.7448 1218.53 74.3998 1219.66C73.0547 1220.79 72.8793 1222.79 74.0079 1224.14L311.062 1506.65C312.191 1507.99 314.196 1508.17 315.541 1507.04C316.886 1505.91 317.062 1503.9 315.933 1502.56Z" fill="#B22222"/>
<path opacity="0.42" d="M384.446 1325.55L298.616 1223.26C297.487 1221.92 295.482 1221.74 294.137 1222.87C292.792 1224 292.617 1226 293.745 1227.35L379.575 1329.64C380.704 1330.98 382.709 1331.16 384.054 1330.03C385.399 1328.9 385.575 1326.89 384.446 1325.55Z" fill="#B22222"/>
<path opacity="0.99" d="M133.056 612.413L-22.2555 427.32C-23.3841 425.975 -25.3894 425.8 -26.7345 426.929C-28.0795 428.057 -28.255 430.063 -27.1263 431.408L128.185 616.5C129.314 617.845 131.319 618.021 132.664 616.892C134.009 615.764 134.185 613.758 133.056 612.413Z" fill="#B22222"/>
<path opacity="0.86" d="M503.962 613.366L272.357 337.35C271.229 336.005 269.223 335.829 267.878 336.958C266.533 338.087 266.358 340.092 267.487 341.437L499.091 617.453C500.22 618.798 502.225 618.973 503.57 617.845C504.915 616.716 505.091 614.711 503.962 613.366Z" fill="#B22222"/>
<path opacity="0.74" d="M1039.65 1846.2L588.703 1308.78C587.574 1307.44 585.569 1307.26 584.224 1308.39C582.879 1309.52 582.703 1311.52 583.832 1312.87L1034.78 1850.29C1035.91 1851.63 1037.91 1851.81 1039.26 1850.68C1040.6 1849.55 1040.78 1847.55 1039.65 1846.2Z" fill="#B22222"/>
<path opacity="0.23" d="M754.207 1893.27L416.337 1490.61C415.208 1489.27 413.203 1489.09 411.858 1490.22C410.513 1491.35 410.337 1493.36 411.466 1494.7L749.336 1897.36C750.465 1898.7 752.47 1898.88 753.815 1897.75C755.16 1896.62 755.336 1894.62 754.207 1893.27Z" fill="#B22222"/>
<path opacity="0.36" d="M940.203 584.904L802.603 420.918C801.474 419.573 799.469 419.398 798.124 420.526C796.779 421.655 796.603 423.66 797.732 425.005L935.332 588.991C936.461 590.336 938.466 590.512 939.811 589.383C941.156 588.254 941.332 586.249 940.203 584.904Z" fill="#B22222"/>
<path opacity="0.37" d="M1518.96 1967.28L1046.21 1403.89C1045.08 1402.54 1043.08 1402.37 1041.73 1403.49C1040.39 1404.62 1040.21 1406.63 1041.34 1407.97L1514.09 1971.37C1515.21 1972.72 1517.22 1972.89 1518.56 1971.76C1519.91 1970.63 1520.09 1968.63 1518.96 1967.28Z" fill="#B22222"/>
<path opacity="0.96" d="M757.088 1286.64L498.236 978.155C497.107 976.81 495.102 976.634 493.757 977.763C492.412 978.891 492.236 980.897 493.365 982.242L752.217 1290.73C753.346 1292.07 755.351 1292.25 756.696 1291.12C758.041 1289.99 758.217 1287.99 757.088 1286.64Z" fill="#B22222"/>
<path opacity="0.12" d="M211.479 206.055L94.3143 66.424C93.1856 65.0789 91.1803 64.9035 89.8353 66.0321C88.4902 67.1608 88.3148 69.1661 89.4434 70.5111L206.608 210.143C207.737 211.488 209.742 211.663 211.087 210.534C212.432 209.406 212.608 207.4 211.479 206.055Z" fill="#B22222"/>
<path opacity="0.91" d="M510.47 1260.71L248.893 948.978C247.765 947.633 245.759 947.457 244.414 948.586C243.069 949.715 242.894 951.72 244.022 953.065L505.599 1264.8C506.728 1266.15 508.733 1266.32 510.078 1265.19C511.423 1264.06 511.599 1262.06 510.47 1260.71Z" fill="#B22222"/>
<path opacity="0.68" d="M768.149 740.254L686.406 642.837C685.278 641.492 683.272 641.316 681.927 642.445C680.582 643.574 680.407 645.579 681.535 646.924L763.278 744.341C764.407 745.686 766.412 745.862 767.757 744.733C769.102 743.604 769.278 741.599 768.149 740.254Z" fill="#B22222"/>
<path opacity="0.18" d="M230.618 1855.44L-111.34 1447.91C-112.468 1446.56 -114.473 1446.39 -115.819 1447.52C-117.164 1448.65 -117.339 1450.65 -116.21 1452L225.747 1859.52C226.876 1860.87 228.881 1861.05 230.226 1859.92C231.571 1858.79 231.747 1856.78 230.618 1855.44Z" fill="#B22222"/>
<path opacity="0.97" d="M684.116 547.078L414.365 225.601C413.237 224.256 411.231 224.08 409.886 225.209C408.541 226.337 408.366 228.343 409.494 229.688L679.246 551.165C680.374 552.51 682.38 552.685 683.725 551.557C685.07 550.428 685.245 548.423 684.116 547.078Z" fill="#B22222"/>
<path opacity="0.11" d="M740.269 1254.37L222.565 637.396C221.436 636.051 219.431 635.875 218.086 637.004C216.741 638.133 216.565 640.138 217.694 641.483L735.399 1258.46C736.527 1259.8 738.532 1259.98 739.878 1258.85C741.223 1257.72 741.398 1255.72 740.269 1254.37Z" fill="#B22222"/>
<path opacity="0.1" d="M524.993 1072.54L56.3339 514.018C55.2053 512.673 53.1999 512.497 51.8549 513.626C50.5098 514.755 50.3344 516.76 51.463 518.105L520.122 1076.63C521.25 1077.98 523.256 1078.15 524.601 1077.02C525.946 1075.89 526.121 1073.89 524.993 1072.54Z" fill="#B22222"/>
<path opacity="0.92" d="M1248.51 1370.57L973.305 1042.6C972.176 1041.25 970.171 1041.07 968.826 1042.2C967.481 1043.33 967.305 1045.34 968.434 1046.68L1243.63 1374.65C1244.76 1376 1246.77 1376.17 1248.11 1375.05C1249.46 1373.92 1249.63 1371.91 1248.51 1370.57Z" fill="#B22222"/>
<path opacity="0.27" d="M130.257 1330.69L14.4549 1192.68C13.3263 1191.34 11.321 1191.16 9.97591 1192.29C8.63086 1193.42 8.45542 1195.43 9.58405 1196.77L125.386 1334.78C126.515 1336.12 128.52 1336.3 129.865 1335.17C131.21 1334.04 131.386 1332.04 130.257 1330.69Z" fill="#B22222"/>
<path opacity="0.18" d="M833.166 1816.51L638.345 1584.33C637.217 1582.99 635.211 1582.81 633.866 1583.94C632.521 1585.07 632.346 1587.07 633.475 1588.42L828.295 1820.6C829.424 1821.94 831.429 1822.12 832.774 1820.99C834.119 1819.86 834.294 1817.86 833.166 1816.51Z" fill="#B22222"/>
<path opacity="0.62" d="M226.769 1778.36L95.9803 1622.49C94.8517 1621.14 92.8464 1620.97 91.5013 1622.1C90.1563 1623.22 89.9808 1625.23 91.1095 1626.57L221.898 1782.44C223.027 1783.79 225.032 1783.96 226.377 1782.83C227.722 1781.71 227.897 1779.7 226.769 1778.36Z" fill="#B22222"/>
<path opacity="0.28" d="M513.653 243.175L309.296 -0.368332C308.167 -1.71338 306.162 -1.88883 304.817 -0.760194C303.471 0.368439 303.296 2.37376 304.425 3.71881L508.782 247.262C509.91 248.607 511.916 248.783 513.261 247.654C514.606 246.525 514.781 244.52 513.653 243.175Z" fill="#B22222"/>
<path d="M29.1969 1117.8L-202.408 841.788C-203.536 840.443 -205.542 840.267 -206.887 841.396C-208.232 842.525 -208.407 844.53 -207.279 845.875L24.3261 1121.89C25.4547 1123.24 27.46 1123.41 28.8051 1122.28C30.1501 1121.15 30.3256 1119.15 29.1969 1117.8Z" fill="#B22222"/>
<path opacity="0.38" d="M1093.02 1376.21L662.505 863.15C661.377 861.805 659.371 861.629 658.026 862.758C656.681 863.886 656.506 865.892 657.634 867.237L1088.15 1380.3C1089.28 1381.65 1091.28 1381.82 1092.63 1380.69C1093.97 1379.56 1094.15 1377.56 1093.02 1376.21Z" fill="#B22222"/>
<path opacity="0.16" d="M310.184 1381.92L143.973 1183.84C142.845 1182.5 140.839 1182.32 139.494 1183.45C138.149 1184.58 137.974 1186.58 139.103 1187.93L305.313 1386.01C306.442 1387.36 308.447 1387.53 309.792 1386.4C311.137 1385.27 311.312 1383.27 310.184 1381.92Z" fill="#B22222"/>
<path opacity="0.83" d="M907.654 1338.95L767.328 1171.71C766.2 1170.37 764.195 1170.19 762.849 1171.32C761.504 1172.45 761.329 1174.45 762.458 1175.8L902.783 1343.03C903.911 1344.38 905.917 1344.55 907.262 1343.42C908.607 1342.3 908.782 1340.29 907.654 1338.95Z" fill="#B22222"/>
<path opacity="0.55" d="M1346.98 517.866L934.177 25.9083C933.048 24.5632 931.043 24.3878 929.698 25.5164C928.353 26.645 928.177 28.6503 929.306 29.9954L1342.11 521.953C1343.24 523.298 1345.24 523.473 1346.59 522.345C1347.93 521.216 1348.11 519.211 1346.98 517.866Z" fill="#B22222"/>
<path opacity="0.66" d="M118.517 503.424L-134.886 201.431C-136.014 200.086 -138.02 199.91 -139.365 201.039C-140.71 202.167 -140.885 204.173 -139.757 205.518L113.646 507.511C114.775 508.856 116.78 509.032 118.125 507.903C119.47 506.775 119.646 504.769 118.517 503.424Z" fill="#B22222"/>
<path opacity="0.79" d="M814.692 1562.13L538.129 1232.54C537 1231.19 534.995 1231.02 533.65 1232.15C532.304 1233.27 532.129 1235.28 533.258 1236.62L809.821 1566.22C810.949 1567.56 812.955 1567.74 814.3 1566.61C815.645 1565.48 815.82 1563.48 814.692 1562.13Z" fill="#B22222"/>
<path opacity="0.91" d="M21.8597 1380.7L-110.291 1223.21C-111.42 1221.87 -113.425 1221.69 -114.77 1222.82C-116.115 1223.95 -116.291 1225.95 -115.162 1227.3L16.9889 1384.79C18.1175 1386.14 20.1228 1386.31 21.4679 1385.18C22.8129 1384.05 22.9884 1382.05 21.8597 1380.7Z" fill="#B22222"/>
<path opacity="0.36" d="M938.387 265.717L817.135 121.215C816.007 119.87 814.001 119.694 812.656 120.823C811.311 121.951 811.136 123.957 812.264 125.302L933.516 269.804C934.645 271.149 936.65 271.325 937.995 270.196C939.34 269.067 939.516 267.062 938.387 265.717Z" fill="#B22222"/>
<path opacity="0.9" d="M886.005 1487.67L759.304 1336.67C758.175 1335.33 756.17 1335.15 754.825 1336.28C753.48 1337.41 753.304 1339.41 754.433 1340.76L881.134 1491.76C882.263 1493.1 884.268 1493.28 885.613 1492.15C886.958 1491.02 887.134 1489.01 886.005 1487.67Z" fill="#B22222"/>
<path opacity="0.49" d="M41.0685 1086.57L-426.228 529.666C-427.357 528.321 -429.362 528.146 -430.707 529.274C-432.052 530.403 -432.228 532.408 -431.099 533.753L36.1976 1090.66C37.3262 1092 39.3316 1092.18 40.6766 1091.05C42.0217 1089.92 42.1971 1087.91 41.0685 1086.57Z" fill="#B22222"/>
<path opacity="0.09" d="M1087.58 859.138L820.55 540.909C819.421 539.563 817.416 539.388 816.071 540.517C814.725 541.645 814.55 543.651 815.679 544.996L1082.71 863.225C1083.83 864.571 1085.84 864.746 1087.18 863.617C1088.53 862.489 1088.7 860.483 1087.58 859.138Z" fill="#B22222"/>
<path opacity="0.47" d="M820.824 266.538L570.146 -32.2088C569.018 -33.5539 567.012 -33.7293 565.667 -32.6007C564.322 -31.4721 564.147 -29.4667 565.276 -28.1217L815.954 270.625C817.082 271.97 819.087 272.145 820.433 271.017C821.778 269.888 821.953 267.883 820.824 266.538Z" fill="#B22222"/>
<path opacity="0.92" d="M380.716 986.276L-96.1173 418.009C-97.246 416.664 -99.2513 416.489 -100.596 417.617C-101.941 418.746 -102.117 420.751 -100.988 422.096L375.845 990.364C376.973 991.709 378.979 991.884 380.324 990.756C381.669 989.627 381.844 987.622 380.716 986.276Z" fill="#B22222"/>
<path opacity="0.63" d="M554.678 811.11L314.899 525.352C313.77 524.007 311.765 523.832 310.42 524.96C309.075 526.089 308.9 528.094 310.028 529.439L549.807 815.197C550.936 816.542 552.941 816.717 554.286 815.589C555.631 814.46 555.807 812.455 554.678 811.11Z" fill="#B22222"/>
<path opacity="0.95" d="M341.447 1778.94L184.773 1592.23C183.644 1590.88 181.639 1590.71 180.294 1591.83C178.949 1592.96 178.774 1594.97 179.902 1596.31L336.576 1783.03C337.705 1784.38 339.71 1784.55 341.055 1783.42C342.4 1782.29 342.575 1780.29 341.447 1778.94Z" fill="#B22222"/>
<path opacity="0.62" d="M806.745 718.484L558.792 422.985C557.663 421.64 555.658 421.465 554.313 422.593C552.968 423.722 552.792 425.727 553.921 427.072L801.874 722.571C803.003 723.916 805.008 724.092 806.353 722.963C807.698 721.835 807.874 719.829 806.745 718.484Z" fill="#B22222"/>
<path opacity="0.14" d="M372.25 1668.01L124.297 1372.52C123.168 1371.17 121.163 1370.99 119.818 1372.12C118.473 1373.25 118.297 1375.26 119.426 1376.6L367.379 1672.1C368.508 1673.45 370.513 1673.62 371.858 1672.49C373.203 1671.36 373.379 1669.36 372.25 1668.01Z" fill="#B22222"/>
<path opacity="0.66" d="M360.746 1308.42L140.04 1045.39C138.912 1044.05 136.906 1043.87 135.561 1045C134.216 1046.13 134.041 1048.14 135.169 1049.48L355.875 1312.51C357.004 1313.85 359.009 1314.03 360.354 1312.9C361.699 1311.77 361.874 1309.77 360.746 1308.42Z" fill="#B22222"/>
<path opacity="0.9" d="M648.536 1360.02L327.015 976.843C325.886 975.498 323.881 975.322 322.536 976.451C321.191 977.579 321.015 979.585 322.144 980.93L643.666 1364.1C644.794 1365.45 646.8 1365.62 648.145 1364.5C649.49 1363.37 649.665 1361.36 648.536 1360.02Z" fill="#B22222"/>
<path opacity="0.65" d="M1266.67 1910L904.275 1478.12C903.146 1476.78 901.141 1476.6 899.796 1477.73C898.45 1478.86 898.275 1480.86 899.404 1482.21L1261.8 1914.09C1262.93 1915.44 1264.93 1915.61 1266.28 1914.48C1267.62 1913.36 1267.8 1911.35 1266.67 1910Z" fill="#B22222"/>
<path opacity="0.67" d="M687.381 510.178L593.377 398.148C592.248 396.803 590.243 396.627 588.898 397.756C587.553 398.885 587.377 400.89 588.506 402.235L682.51 514.265C683.639 515.61 685.644 515.785 686.989 514.657C688.334 513.528 688.509 511.523 687.381 510.178Z" fill="#B22222"/>
<path opacity="0.36" d="M165.523 367.733L-105.59 44.6324C-106.719 43.2874 -108.724 43.1119 -110.069 44.2406C-111.415 45.3692 -111.59 47.3745 -110.461 48.7196L160.652 371.82C161.781 373.165 163.786 373.341 165.131 372.212C166.476 371.083 166.652 369.078 165.523 367.733Z" fill="#B22222"/>
<path opacity="0.28" d="M3.77128 1228.23L-75.2468 1134.06C-76.3754 1132.72 -78.3807 1132.54 -79.7258 1133.67C-81.0708 1134.8 -81.2463 1136.8 -80.1176 1138.15L-1.09958 1232.32C0.0290468 1233.66 2.03437 1233.84 3.37942 1232.71C4.72447 1231.58 4.89991 1229.58 3.77128 1228.23Z" fill="#B22222"/>
<path opacity="0.21" d="M919.371 1261.13L497.033 757.807C495.905 756.462 493.899 756.287 492.554 757.415C491.209 758.544 491.034 760.549 492.163 761.894L914.5 1265.22C915.629 1266.56 917.634 1266.74 918.979 1265.61C920.325 1264.48 920.5 1262.47 919.371 1261.13Z" fill="#B22222"/>
<path opacity="0.42" d="M461.726 420.444L276.442 199.631C275.314 198.286 273.308 198.111 271.963 199.24C270.618 200.368 270.443 202.374 271.572 203.719L456.855 424.531C457.984 425.876 459.989 426.052 461.334 424.923C462.679 423.794 462.855 421.789 461.726 420.444Z" fill="#B22222"/>
<path opacity="0.47" d="M387.468 329.622L198.097 103.939C196.969 102.593 194.963 102.418 193.618 103.547C192.273 104.675 192.098 106.681 193.226 108.026L382.597 333.709C383.726 335.054 385.731 335.23 387.076 334.101C388.421 332.972 388.597 330.967 387.468 329.622Z" fill="#B22222"/>
<path opacity="0.77" d="M1171.97 582.482L846.365 194.436C845.236 193.091 843.231 192.915 841.886 194.044C840.541 195.173 840.365 197.178 841.494 198.523L1167.1 586.569C1168.23 587.914 1170.24 588.089 1171.58 586.961C1172.93 585.832 1173.1 583.827 1171.97 582.482Z" fill="#B22222"/>
<path opacity="0.07" d="M262.113 1703.73L18.2466 1413.1C17.118 1411.76 15.1127 1411.58 13.7676 1412.71C12.4226 1413.84 12.2471 1415.84 13.3758 1417.19L257.242 1707.82C258.37 1709.16 260.376 1709.34 261.721 1708.21C263.066 1707.08 263.241 1705.07 262.113 1703.73Z" fill="#B22222"/>
<path opacity="0.77" d="M972.225 1729.06L885.033 1625.15C883.904 1623.81 881.899 1623.63 880.554 1624.76C879.209 1625.89 879.033 1627.89 880.162 1629.24L967.354 1733.15C968.483 1734.49 970.488 1734.67 971.833 1733.54C973.178 1732.41 973.354 1730.41 972.225 1729.06Z" fill="#B22222"/>
<path opacity="0.8" d="M523.035 1723.39L253.284 1401.92C252.155 1400.57 250.15 1400.4 248.805 1401.52C247.46 1402.65 247.285 1404.66 248.413 1406L518.165 1727.48C519.293 1728.83 521.298 1729 522.644 1727.87C523.989 1726.74 524.164 1724.74 523.035 1723.39Z" fill="#B22222"/>
<path opacity="0.29" d="M1230.78 1589.7L762.123 1031.17C760.995 1029.83 758.989 1029.65 757.644 1030.78C756.299 1031.91 756.124 1033.91 757.252 1035.26L1225.91 1593.79C1227.04 1595.13 1229.05 1595.31 1230.39 1594.18C1231.74 1593.05 1231.91 1591.04 1230.78 1589.7Z" fill="#B22222"/>
<path opacity="0.94" d="M696.844 1603.38L617.826 1509.21C616.697 1507.87 614.692 1507.69 613.347 1508.82C612.001 1509.95 611.826 1511.95 612.955 1513.3L691.973 1607.47C693.101 1608.81 695.107 1608.99 696.452 1607.86C697.797 1606.73 697.972 1604.73 696.844 1603.38Z" fill="#B22222"/>
<path opacity="0.94" d="M184.97 1010.26L-218.295 529.67C-219.423 528.325 -221.429 528.15 -222.774 529.279C-224.119 530.407 -224.294 532.413 -223.166 533.758L180.099 1014.35C181.228 1015.69 183.233 1015.87 184.578 1014.74C185.923 1013.61 186.099 1011.61 184.97 1010.26Z" fill="#B22222"/>
<path opacity="0.81" d="M739.303 342.339L549.932 116.655C548.804 115.31 546.798 115.135 545.453 116.264C544.108 117.392 543.933 119.398 545.061 120.743L734.432 346.426C735.561 347.771 737.566 347.946 738.911 346.818C740.256 345.689 740.432 343.684 739.303 342.339Z" fill="#B22222"/>
<path opacity="0.22" d="M1291.88 1020.98L1069.81 756.333C1068.69 754.988 1066.68 754.812 1065.33 755.941C1063.99 757.069 1063.81 759.075 1064.94 760.42L1287.01 1025.07C1288.14 1026.42 1290.14 1026.59 1291.49 1025.46C1292.84 1024.33 1293.01 1022.33 1291.88 1020.98Z" fill="#B22222"/>
<path opacity="0.31" d="M164.994 1231.04L-96.5832 919.305C-97.7118 917.96 -99.7171 917.785 -101.062 918.913C-102.407 920.042 -102.583 922.047 -101.454 923.392L160.123 1235.13C161.252 1236.47 163.257 1236.65 164.602 1235.52C165.947 1234.39 166.122 1232.39 164.994 1231.04Z" fill="#B22222"/>
<path opacity="0.36" d="M445.601 699.813L228.983 441.657C227.854 440.312 225.849 440.136 224.504 441.265C223.159 442.394 222.983 444.399 224.112 445.744L440.73 703.9C441.859 705.245 443.864 705.42 445.209 704.292C446.554 703.163 446.73 701.158 445.601 699.813Z" fill="#B22222"/>
<path opacity="0.73" d="M271.879 447.278L59.3479 193.993C58.2193 192.648 56.214 192.472 54.8689 193.601C53.5239 194.729 53.3484 196.735 54.4771 198.08L267.008 451.365C268.137 452.71 270.142 452.885 271.487 451.757C272.832 450.628 273.008 448.623 271.879 447.278Z" fill="#B22222"/>
<path opacity="0.17" d="M429.626 280.654L151.7 -50.5646C150.572 -51.9096 148.567 -52.0851 147.221 -50.9564C145.876 -49.8278 145.701 -47.8225 146.83 -46.4774L424.755 284.741C425.884 286.086 427.889 286.262 429.234 285.133C430.579 284.005 430.755 281.999 429.626 280.654Z" fill="#B22222"/>
<path opacity="0.91" d="M127.303 1596.98L-33.4582 1405.4C-34.5868 1404.05 -36.5922 1403.88 -37.9372 1405C-39.2823 1406.13 -39.4577 1408.14 -38.3291 1409.48L122.432 1601.07C123.56 1602.42 125.566 1602.59 126.911 1601.46C128.256 1600.33 128.431 1598.33 127.303 1596.98Z" fill="#B22222"/>
<path opacity="0.94" d="M367.328 736.164L82.5904 396.827C81.4618 395.482 79.4565 395.307 78.1114 396.435C76.7664 397.564 76.5909 399.569 77.7196 400.914L362.457 740.251C363.586 741.596 365.591 741.772 366.936 740.643C368.281 739.514 368.457 737.509 367.328 736.164Z" fill="#B22222"/>
<path opacity="0.74" d="M1137.32 1117.48L1037.86 998.954C1036.74 997.609 1034.73 997.434 1033.38 998.563C1032.04 999.691 1031.86 1001.7 1032.99 1003.04L1132.45 1121.57C1133.58 1122.91 1135.58 1123.09 1136.93 1121.96C1138.27 1120.83 1138.45 1118.82 1137.32 1117.48Z" fill="#B22222"/>
<path opacity="0.54" d="M831.949 1435.23L533.588 1079.66C532.459 1078.32 530.454 1078.14 529.109 1079.27C527.764 1080.4 527.588 1082.4 528.717 1083.75L827.078 1439.32C828.207 1440.67 830.212 1440.84 831.557 1439.71C832.902 1438.59 833.078 1436.58 831.949 1435.23Z" fill="#B22222"/>
<path opacity="0.56" d="M638.848 732.513L328.225 362.327C327.097 360.982 325.091 360.807 323.746 361.936C322.401 363.064 322.226 365.07 323.354 366.415L633.977 736.6C635.106 737.945 637.111 738.121 638.456 736.992C639.801 735.864 639.977 733.858 638.848 732.513Z" fill="#B22222"/>
<path opacity="0.4" d="M863.904 837.707L764.45 719.182C763.321 717.837 761.316 717.662 759.971 718.79C758.626 719.919 758.45 721.924 759.579 723.269L859.033 841.794C860.161 843.139 862.167 843.314 863.512 842.186C864.857 841.057 865.032 839.052 863.904 837.707Z" fill="#B22222"/>
<path opacity="0.39" d="M645.892 416.569L410.2 135.683C409.071 134.337 407.066 134.162 405.721 135.291C404.376 136.419 404.201 138.425 405.329 139.77L641.021 420.656C642.15 422.001 644.155 422.177 645.5 421.048C646.845 419.919 647.021 417.914 645.892 416.569Z" fill="#B22222"/>
<path opacity="0.96" d="M282.481 1143.64L146.243 981.275C145.114 979.93 143.109 979.754 141.764 980.883C140.419 982.011 140.243 984.017 141.372 985.362L277.61 1147.72C278.739 1149.07 280.744 1149.24 282.089 1148.12C283.434 1146.99 283.609 1144.98 282.481 1143.64Z" fill="#B22222"/>
<path opacity="0.86" d="M14.5985 119.376L-14.0115 85.2799C-15.1401 83.9348 -17.1455 83.7594 -18.4905 84.888C-19.8356 86.0167 -20.011 88.022 -18.8824 89.367L9.72761 123.463C10.8562 124.808 12.8616 124.984 14.2066 123.855C15.5517 122.726 15.7271 120.721 14.5985 119.376Z" fill="#B22222"/>
<path opacity="0.28" d="M606.76 1617.82L432.376 1409.99C431.247 1408.65 429.242 1408.47 427.897 1409.6C426.552 1410.73 426.376 1412.74 427.505 1414.08L601.889 1621.91C603.018 1623.25 605.023 1623.43 606.368 1622.3C607.713 1621.17 607.889 1619.16 606.76 1617.82Z" fill="#B22222"/>
<path opacity="0.55" d="M648.538 1479.29L365.163 1141.58C364.035 1140.23 362.029 1140.06 360.684 1141.19C359.339 1142.32 359.164 1144.32 360.293 1145.67L643.668 1483.38C644.796 1484.72 646.802 1484.9 648.147 1483.77C649.492 1482.64 649.667 1480.64 648.538 1479.29Z" fill="#B22222"/>
<path opacity="0.95" d="M395.423 1741.51L330.029 1663.57C328.9 1662.23 326.895 1662.05 325.55 1663.18C324.205 1664.31 324.029 1666.32 325.158 1667.66L390.552 1745.59C391.681 1746.94 393.686 1747.12 395.031 1745.99C396.376 1744.86 396.552 1742.85 395.423 1741.51Z" fill="#B22222"/>
<path opacity="0.76" d="M495.096 1191.23L90.4694 709.015C89.3407 707.67 87.3354 707.494 85.9903 708.623C84.6453 709.752 84.4699 711.757 85.5985 713.102L490.225 1195.32C491.354 1196.66 493.359 1196.84 494.704 1195.71C496.049 1194.58 496.225 1192.58 495.096 1191.23Z" fill="#B22222"/>
<path opacity="0.1" d="M11.7751 1625.46L-435.086 1092.91C-436.214 1091.56 -438.22 1091.39 -439.565 1092.52C-440.91 1093.65 -441.085 1095.65 -439.956 1097L6.90425 1629.54C8.03289 1630.89 10.0382 1631.07 11.3833 1629.94C12.7283 1628.81 12.9038 1626.8 11.7751 1625.46Z" fill="#B22222"/>
</g>
<defs>
<clipPath id="clip0_2_2">
<rect width="1080" height="1920" fill="white"/>
</clipPath>
</defs>
</svg>
