<svg width="1080" height="1920" viewBox="0 0 1080 1920" fill="none" xmlns="http://www.w3.org/2000/svg">
<g clip-path="url(#clip0_2_2)">
<path opacity="0.05" d="M1269.28 1155.12L70.4478 -209L-451 1737.07L1269.28 1155.12Z" stroke="#B22222" stroke-width="2.5"/>
<path opacity="0.08" d="M1257.4 1112.17L25.0627 -150.209L-381.853 1764.18L1257.4 1112.17Z" stroke="#B22222" stroke-width="2.5"/>
<path opacity="0.11" d="M1243.08 1071.01L-15.4963 -89.9607L-312.658 1786.24L1243.08 1071.01Z" stroke="#B22222" stroke-width="2.5"/>
<path opacity="0.13" d="M1226.48 1031.78L-51.2044 -28.5953L-243.749 1803.34L1226.48 1031.78Z" stroke="#B22222" stroke-width="2.5"/>
<path opacity="0.16" d="M1207.76 994.6L-82.0618 33.5457L-175.454 1815.57L1207.76 994.6Z" stroke="#B22222" stroke-width="2.5"/>
<path opacity="0.19" d="M1187.09 959.578L-108.088 96.1265V1823.03L1187.09 959.578Z" stroke="#B22222" stroke-width="2.5"/>
<path opacity="0.22" d="M1164.64 926.815L-129.327 158.815L-41.9608 1825.87L1164.64 926.815Z" stroke="#B22222" stroke-width="2.5"/>
<path opacity="0.25" d="M1140.6 896.399L-145.843 221.283L22.6336 1824.23L1140.6 896.399Z" stroke="#B22222" stroke-width="2.5"/>
<path opacity="0.27" d="M1115.15 868.403L-157.72 283.214L85.4125 1818.29L1115.15 868.403Z" stroke="#B22222" stroke-width="2.5"/>
<path opacity="0.3" d="M1088.48 842.889L-165.064 344.295L146.107 1808.24L1088.48 842.889Z" stroke="#B22222" stroke-width="2.5"/>
<path opacity="0.33" d="M1060.77 819.904L-168 404.226L204.463 1794.28L1060.77 819.904Z" stroke="#B22222" stroke-width="2.5"/>
<path opacity="0.36" d="M1032.21 799.485L-166.671 462.718L260.242 1776.62L1032.21 799.485Z" stroke="#B22222" stroke-width="2.5"/>
<path opacity="0.39" d="M1003.01 781.654L-161.24 519.491L313.224 1755.51L1003.01 781.654Z" stroke="#B22222" stroke-width="2.5"/>
<path opacity="0.41" d="M973.341 766.419L-151.886 574.281L363.204 1731.19L973.341 766.419Z" stroke="#B22222" stroke-width="2.5"/>
<path opacity="0.44" d="M943.404 753.779L-138.803 626.839L409.995 1703.92L943.404 753.779Z" stroke="#B22222" stroke-width="2.5"/>
<path opacity="0.47" d="M913.385 743.715L-122.203 676.927L453.432 1673.95L913.385 743.715Z" stroke="#B22222" stroke-width="2.5"/>
<path opacity="0.5" d="M883.472 736.2L-102.309 724.327L493.365 1641.58L883.472 736.2Z" stroke="#B22222" stroke-width="2.5"/>
<path opacity="0.53" d="M853.846 731.192L-79.3603 768.836L529.668 1607.09L853.846 731.192Z" stroke="#B22222" stroke-width="2.5"/>
<path opacity="0.55" d="M824.687 728.638L-53.6064 810.269L562.233 1570.77L824.687 728.638Z" stroke="#B22222" stroke-width="2.5"/>
<path opacity="0.58" d="M796.168 728.473L-25.3071 848.459L590.972 1532.91L796.168 728.473Z" stroke="#B22222" stroke-width="2.5"/>
<path opacity="0.61" d="M768.457 730.621L5.26715 883.259L615.819 1493.81L768.457 730.621Z" stroke="#B22222" stroke-width="2.5"/>
<path opacity="0.64" d="M741.717 734.994L37.8381 914.54L636.729 1453.78L741.717 734.994Z" stroke="#B22222" stroke-width="2.5"/>
<path opacity="0.66" d="M716.101 741.494L72.1204 942.194L653.678 1413.13L716.101 741.494Z" stroke="#B22222" stroke-width="2.5"/>
<path opacity="0.69" d="M691.757 750.014L107.824 966.132L666.661 1372.15L691.757 750.014Z" stroke="#B22222" stroke-width="2.5"/>
<path opacity="0.72" d="M668.824 760.436L144.654 986.288L675.698 1331.15L668.824 760.436Z" stroke="#B22222" stroke-width="2.5"/>
<path opacity="0.75" d="M647.431 772.635L182.312 1002.61L680.825 1290.43L647.431 772.635Z" stroke="#B22222" stroke-width="2.5"/>
<path opacity="0.78" d="M627.7 786.476L220.498 1015.08L682.102 1250.28L627.7 786.476Z" stroke="#B22222" stroke-width="2.5"/>
<path opacity="0.8" d="M609.74 801.818L258.914 1023.69L679.608 1210.99L609.74 801.818Z" stroke="#B22222" stroke-width="2.5"/>
<path opacity="0.83" d="M593.651 818.51L297.259 1028.44L673.44 1172.85L593.651 818.51Z" stroke="#B22222" stroke-width="2.5"/>
<path opacity="0.86" d="M579.523 836.399L335.239 1029.39L663.715 1136.12L579.523 836.399Z" stroke="#B22222" stroke-width="2.5"/>
<path opacity="0.89" d="M567.435 855.324L372.56 1026.59L650.57 1101.08L567.435 855.324Z" stroke="#B22222" stroke-width="2.5"/>
<path opacity="0.92" d="M557.452 875.12L408.937 1020.1L634.159 1067.97L557.452 875.12Z" stroke="#B22222" stroke-width="2.5"/>
<path opacity="0.94" d="M549.631 895.616L444.087 1010.03L614.652 1037.05L549.631 895.616Z" stroke="#B22222" stroke-width="2.5"/>
<path opacity="0.97" d="M544.013 916.642L477.739 996.497L592.236 1008.53L544.013 916.642Z" stroke="#B22222" stroke-width="2.5"/>
<path d="M540.63 938.021L509.628 979.628L567.113 982.641L540.63 938.021Z" stroke="#B22222" stroke-width="2.5"/>
</g>
<defs>
<clipPath id="clip0_2_2">
<rect width="1080" height="1920" fill="white"/>
</clipPath>
</defs>
</svg>
